<svg width="82" height="36" viewBox="0 0 82 36" fill="none" xmlns="http://www.w3.org/2000/svg"><path d="M74 26.3c-1.2 0-2.5-.2-3.6-.6-1.2-.4-2.1-1-3-1.8a8.6 8.6 0 0 1-2.6-6.3 8.6 8.6 0 0 1 2.7-6.3c.8-.8 1.8-1.4 3-1.8 1-.4 2.3-.6 3.7-.6 1.6 0 3 .2 4.2.8a8 8 0 0 1 3.1 2.2l-3 2.8c-.6-.7-1.2-1.1-1.9-1.4a5.5 5.5 0 0 0-4.2-.1 4 4 0 0 0-1.5 1c-.4.3-.7.8-1 1.4-.2.6-.3 1.3-.3 2s.1 1.4.4 2a4.6 4.6 0 0 0 4.4 2.9l2-.4a7 7 0 0 0 2-1.2l2.7 3.3c-1 .7-2 1.2-3.3 1.6-1.3.4-2.5.5-3.7.5Zm3-2.7v-6.4H81v7l-4.2-.6Z" fill="#333"/><path fill-rule="evenodd" clip-rule="evenodd" d="M58 18c0 2.9-.6 5.6-1.7 8H43c2.5-3.8 5-8.3 5-13C48 7 44 2 38.4.5 39.6.2 40.8 0 42 0c8.8 0 16 8 16 18Zm-14-5c0-5-4-9-9-9-6.7 0-9 8.5-9 14 0 10 7.2 18 16 18 4.7 0 9-2.3 12-6H35l1.1-1.4C39.6 24.2 44 18.7 44 13Z" fill="#7859CF"/><path d="M1.9 26V9.2h7.9c1.9 0 3.5.3 4.9 1a7.9 7.9 0 0 1 4.5 7.4 7.9 7.9 0 0 1-4.5 7.4c-1.4.7-3 1-4.9 1h-8Zm4.7-3.8h3c1 0 1.8-.2 2.5-.5a4 4 0 0 0 1.7-1.6 5 5 0 0 0 .6-2.5c0-1-.2-1.8-.6-2.5-.4-.7-1-1.2-1.7-1.6-.7-.3-1.5-.5-2.5-.5h-3v9.2Z" fill="#333"/></svg>