<svg width="170" height="36" viewBox="0 0 170 36" fill="none" xmlns="http://www.w3.org/2000/svg"><path d="M140 26.3c-1.2 0-2.5-.2-3.6-.6-1.2-.4-2.1-1-3-1.8a8.6 8.6 0 0 1-2.6-6.3 8.6 8.6 0 0 1 2.7-6.3c.8-.8 1.8-1.4 3-1.8 1-.4 2.3-.6 3.7-.6 1.6 0 3 .2 4.2.8a8 8 0 0 1 3.1 2.2l-3 2.8c-.6-.7-1.2-1.1-1.9-1.4a5.5 5.5 0 0 0-4.2-.1 4 4 0 0 0-1.5 1c-.4.3-.7.8-1 1.4-.2.6-.3 1.3-.3 2s.1 1.4.4 2a4.6 4.6 0 0 0 4.4 2.9l2-.4a7 7 0 0 0 2-1.2l2.7 3.3c-1 .7-2 1.2-3.3 1.6-1.3.4-2.5.5-3.7.5Zm3-2.7v-6.4h4.1v7l-4.2-.6Zm16.1 2.7a9.1 9.1 0 0 1-6.7-2.5 8.7 8.7 0 0 1 3-14.3c1.1-.4 2.4-.6 3.7-.6 1.4 0 2.6.2 3.7.6a8.6 8.6 0 0 1 0 16.2c-1.1.4-2.3.6-3.7.6Zm0-3.9 1.8-.3a4 4 0 0 0 1.4-1c.4-.4.8-1 1-1.5.2-.6.3-1.3.3-2a5 5 0 0 0-1.3-3.5 4 4 0 0 0-1.4-1l-1.8-.3-1.8.3-1.4 1a4.7 4.7 0 0 0-1.3 3.5c0 .7 0 1.4.3 2a5 5 0 0 0 1 1.5 4.4 4.4 0 0 0 3.2 1.3Z" fill="#333"/><path fill-rule="evenodd" clip-rule="evenodd" d="M124 18c0 2.9-.6 5.6-1.7 8H109c2.5-3.8 5-8.3 5-13 0-6-4-11-9.6-12.5 1.2-.3 2.4-.5 3.6-.5 8.8 0 16 8 16 18Zm-14-5c0-5-4-9-9-9-6.7 0-9 8.5-9 14 0 10 7.2 18 16 18 4.7 0 9-2.3 12-6h-19l1.1-1.4c3.5-4.4 7.9-9.9 7.9-15.6Z" fill="#7859CF"/><path d="M2.7 26V9.2h7.9c1.9 0 3.5.3 4.9 1a7.9 7.9 0 0 1 4.5 7.4 7.9 7.9 0 0 1-4.5 7.4c-1.4.7-3 1-5 1H2.8Zm4.7-3.8h3c1 0 1.8-.2 2.5-.5a4 4 0 0 0 1.7-1.6 5 5 0 0 0 .6-2.5c0-1-.2-1.8-.6-2.5-.4-.7-1-1.2-1.7-1.6-.7-.3-1.5-.5-2.5-.5h-3v9.2ZM23 26V9.2h7.6c1.6 0 2.9.2 4 .7 1.1.5 2 1.3 2.6 2.2.6 1 .9 2 .9 3.3 0 1.3-.3 2.4-1 3.3-.5 1-1.4 1.6-2.5 2.1s-2.4.7-4 .7h-5l2.1-2V26H23Zm10.4 0-4.2-6.1h5l4.2 6.1h-5Zm-5.7-6L25.6 18h4.8c1 0 1.7-.3 2.2-.7.5-.4.7-1 .7-1.8s-.2-1.4-.7-1.8c-.5-.4-1.3-.7-2.2-.7h-4.8l2.1-2.1V20Zm13.5 6V9.2H46V26h-4.8Zm8.6 0V9.2h4L63 20.4H61V9.2h4.7V26h-4l-9.2-11.2h1.9V26h-4.7Zm24-3.7-.2-5.3 7.2-7.8h5.3L78.9 17l-2.7 2.8-2.3 2.5ZM69.7 26V9.2h4.7V26h-4.7ZM81 26l-5.5-7 3.1-3.2 8 10.2h-5.6Z" fill="#333"/></svg>